<?xml version="1.0" encoding="utf-8"?>
<!-- Generator: Adobe Illustrator 16.0.0, SVG Export Plug-In . SVG Version: 6.00 Build 0)  -->
<!DOCTYPE svg PUBLIC "-//W3C//DTD SVG 1.1//EN" "http://www.w3.org/Graphics/SVG/1.1/DTD/svg11.dtd">
<svg version="1.1" id="Capa_1" xmlns="http://www.w3.org/2000/svg" xmlns:xlink="http://www.w3.org/1999/xlink" x="0px" y="0px"
	 width="92px" height="56px" viewBox="0 0 92 56" enable-background="new 0 0 92 56" xml:space="preserve">
<path fill-rule="evenodd" clip-rule="evenodd" fill="#956233" d="M48.46,29.23v3.319h10.66v3.261H48.46v1.629h-4.92v-1.629H32.88
	V32.55h10.66V29.23C30.2,28.54,19.76,22.28,19.76,14.65C19.76,6.56,31.51,0,46,0s26.24,6.56,26.24,14.65
	C72.24,22.28,61.8,28.54,48.46,29.23z M32.06,14.65c0-5.68,3.44-10.55,8.37-12.69C28.96,3.38,21.4,9.04,21.4,14.65
	s7.56,11.27,19.03,12.68C35.5,25.2,32.06,20.33,32.06,14.65z M51.57,1.96c4.93,2.14,8.369,7.01,8.369,12.69
	c0,5.68-3.439,10.55-8.369,12.68C63.04,25.92,70.6,20.26,70.6,14.65S63.04,3.38,51.57,1.96z"/>
<path fill-rule="evenodd" clip-rule="evenodd" fill="#956233" d="M12.67,51.811v2.879C10.99,55.561,9.29,56,7.56,56
	c-2.38,0-4.28-0.7-5.67-2.09C0.63,52.67,0,51.12,0,49.279c0-1.85,0.68-3.42,2.04-4.699c1.47-1.391,3.4-2.09,5.77-2.09
	c1.87,0,3.44,0.39,4.71,1.16v2.93c-1.59-0.9-3.08-1.35-4.48-1.35c-1.38,0-2.51,0.379-3.39,1.119c-0.88,0.75-1.32,1.7-1.32,2.881
	c0,1.18,0.44,2.149,1.31,2.899c0.87,0.75,1.98,1.13,3.32,1.13c0.78,0,1.54-0.13,2.29-0.39C10.76,52.71,11.56,52.35,12.67,51.811z"/>
<path fill-rule="evenodd" clip-rule="evenodd" fill="#956233" d="M24.84,49.25c0-1.21-0.37-2.18-1.11-2.92
	c-0.73-0.73-1.7-1.1-2.91-1.1c-1.2,0-2.18,0.369-2.92,1.1c-0.74,0.74-1.11,1.71-1.11,2.92c0,1.2,0.37,2.18,1.11,2.91
	c0.74,0.73,1.72,1.1,2.92,1.1c1.21,0,2.18-0.369,2.91-1.1C24.47,51.43,24.84,50.45,24.84,49.25z M28.1,49.25
	c0,1.779-0.64,3.33-1.92,4.65C24.79,55.3,23,56,20.82,56c-2.21,0-4.01-0.71-5.39-2.12c-1.27-1.29-1.9-2.83-1.9-4.63
	c0-1.75,0.61-3.279,1.84-4.58c1.38-1.449,3.2-2.18,5.45-2.18s4.07,0.73,5.43,2.18C27.49,45.99,28.1,47.51,28.1,49.25z"/>
<path fill-rule="evenodd" clip-rule="evenodd" fill="#956233" d="M32.35,45.08v8.33h2.11c1.49,0,2.6-0.45,3.34-1.37
	c0.6-0.729,0.89-1.66,0.89-2.79c0-1.23-0.33-2.21-0.99-2.939c-0.73-0.82-1.83-1.23-3.27-1.23H32.35z M29.11,42.67h5.74
	c2.27,0,4.06,0.65,5.37,1.939c1.2,1.201,1.81,2.75,1.81,4.65c0,1.99-0.61,3.551-1.83,4.69c-1.32,1.25-3.23,1.88-5.72,1.88h-5.37
	V42.67z"/>
<polygon fill-rule="evenodd" clip-rule="evenodd" fill="#956233" points="52.689,53.41 52.689,55.83 43.11,55.83 43.11,42.67 
	52.561,42.67 52.561,45.08 46.35,45.08 46.35,47.84 52.27,47.84 52.27,50.25 46.35,50.25 46.35,53.41 "/>
<polygon fill-rule="evenodd" clip-rule="evenodd" fill="#956233" points="63.76,53.41 63.76,55.83 53.859,55.83 53.859,42.67 
	57.09,42.67 57.09,53.41 "/>
<path fill-rule="evenodd" clip-rule="evenodd" fill="#956233" d="M76.57,51.811v2.879C74.891,55.561,73.189,56,71.46,56
	c-2.39,0-4.28-0.7-5.681-2.09c-1.25-1.24-1.879-2.79-1.879-4.631c0-1.85,0.68-3.42,2.039-4.699c1.471-1.391,3.391-2.09,5.771-2.09
	c1.87,0,3.44,0.39,4.71,1.16v2.93c-1.59-0.9-3.08-1.35-4.48-1.35c-1.39,0-2.52,0.379-3.39,1.119c-0.88,0.75-1.319,1.7-1.319,2.881
	c0,1.18,0.439,2.149,1.31,2.899s1.979,1.13,3.319,1.13c0.781,0,1.541-0.13,2.291-0.39C74.66,52.71,75.46,52.35,76.57,51.811z"/>
<path fill-rule="evenodd" clip-rule="evenodd" fill="#956233" d="M88.73,49.25c0-1.21-0.36-2.18-1.101-2.92
	c-0.729-0.73-1.7-1.1-2.909-1.1c-1.211,0-2.181,0.369-2.921,1.1c-0.739,0.74-1.11,1.71-1.11,2.92c0,1.2,0.371,2.18,1.11,2.91
	c0.74,0.73,1.71,1.1,2.921,1.1c1.209,0,2.18-0.369,2.909-1.1C88.37,51.43,88.73,50.45,88.73,49.25z M92,49.25
	c0,1.779-0.641,3.33-1.92,4.65C88.68,55.3,86.9,56,84.721,56c-2.211,0-4.011-0.71-5.391-2.12c-1.27-1.29-1.91-2.83-1.91-4.63
	c0-1.75,0.62-3.279,1.85-4.58c1.381-1.449,3.201-2.18,5.451-2.18s4.059,0.73,5.43,2.18C91.38,45.99,92,47.51,92,49.25z"/>
</svg>
